/usr/bin/ffmpeg -hide_banner -y -v debug -r 4 -start_number 0 -start_number_range 1 -i /home/supertuxi/Documents/GodotProjects/Todesstille/assets/textures/frame%04d.png -vf palettegen=stats_mode=full:reserve_transparent=1 -y /home/supertuxi/Documents/GodotProjects/Todesstille/assets/textures/KritaTempPalettegen_%06d.png 
=====================================================
Splitting the commandline.
Reading option '-hide_banner' ... matched as option 'hide_banner' (do not show program banner) with argument '1'.
Reading option '-y' ... matched as option 'y' (overwrite output files) with argument '1'.
Reading option '-v' ... matched as option 'v' (set logging level) with argument 'debug'.
Reading option '-r' ... matched as option 'r' (override input framerate/convert to given output framerate (Hz value, fraction or abbreviation)) with argument '4'.
Reading option '-start_number' ... matched as AVOption 'start_number' with argument '0'.
Reading option '-start_number_range' ... matched as AVOption 'start_number_range' with argument '1'.
Reading option '-i' ... matched as input url with argument '/home/supertuxi/Documents/GodotProjects/Todesstille/assets/textures/frame%04d.png'.
Reading option '-vf' ... matched as option 'vf' (alias for -filter:v (apply filters to video streams)) with argument 'palettegen=stats_mode=full:reserve_transparent=1'.
Reading option '-y' ... matched as option 'y' (overwrite output files) with argument '1'.
Reading option '/home/supertuxi/Documents/GodotProjects/Todesstille/assets/textures/KritaTempPalettegen_%06d.png' ... matched as output url.
Finished splitting the commandline.
Parsing a group of options: global .
Applying option hide_banner (do not show program banner) with argument 1.
Applying option y (overwrite output files) with argument 1.
Applying option v (set logging level) with argument debug.
Applying option y (overwrite output files) with argument 1.
Successfully parsed a group of options.
Parsing a group of options: input url /home/supertuxi/Documents/GodotProjects/Todesstille/assets/textures/frame%04d.png.
Applying option r (override input framerate/convert to given output framerate (Hz value, fraction or abbreviation)) with argument 4.
Successfully parsed a group of options.
Opening an input file: /home/supertuxi/Documents/GodotProjects/Todesstille/assets/textures/frame%04d.png.
[image2 @ 0x598713331400] Opening '/home/supertuxi/Documents/GodotProjects/Todesstille/assets/textures/frame0000.png' for reading
[file @ 0x5987133357c0] Setting default whitelist 'file,crypto,data'
[AVIOContext @ 0x59871333d8c0] Statistics: 10797 bytes read, 0 seeks
[image2 @ 0x598713331400] Opening '/home/supertuxi/Documents/GodotProjects/Todesstille/assets/textures/frame0001.png' for reading
[file @ 0x5987133357c0] Setting default whitelist 'file,crypto,data'
[AVIOContext @ 0x59871333d8c0] Statistics: 10996 bytes read, 0 seeks
[image2 @ 0x598713331400] Opening '/home/supertuxi/Documents/GodotProjects/Todesstille/assets/textures/frame0002.png' for reading
[file @ 0x5987133357c0] Setting default whitelist 'file,crypto,data'
[AVIOContext @ 0x59871333d8c0] Statistics: 11012 bytes read, 0 seeks
[image2 @ 0x598713331400] Opening '/home/supertuxi/Documents/GodotProjects/Todesstille/assets/textures/frame0003.png' for reading
[file @ 0x5987133357c0] Setting default whitelist 'file,crypto,data'
[AVIOContext @ 0x59871333d8c0] Statistics: 11180 bytes read, 0 seeks
[image2 @ 0x598713331400] Opening '/home/supertuxi/Documents/GodotProjects/Todesstille/assets/textures/frame0004.png' for reading
[file @ 0x5987133357c0] Setting default whitelist 'file,crypto,data'
[AVIOContext @ 0x59871333d8c0] Statistics: 11261 bytes read, 0 seeks
[image2 @ 0x598713331400] Opening '/home/supertuxi/Documents/GodotProjects/Todesstille/assets/textures/frame0005.png' for reading
[file @ 0x5987133357c0] Setting default whitelist 'file,crypto,data'
[AVIOContext @ 0x59871333d8c0] Statistics: 11307 bytes read, 0 seeks
[image2 @ 0x598713331400] Opening '/home/supertuxi/Documents/GodotProjects/Todesstille/assets/textures/frame0006.png' for reading
[file @ 0x5987133357c0] Setting default whitelist 'file,crypto,data'
[AVIOContext @ 0x59871333d8c0] Statistics: 11222 bytes read, 0 seeks
[image2 @ 0x598713331400] Opening '/home/supertuxi/Documents/GodotProjects/Todesstille/assets/textures/frame0007.png' for reading
[file @ 0x5987133357c0] Setting default whitelist 'file,crypto,data'
[AVIOContext @ 0x59871333d8c0] Statistics: 11260 bytes read, 0 seeks
[image2 @ 0x598713331400] Opening '/home/supertuxi/Documents/GodotProjects/Todesstille/assets/textures/frame0008.png' for reading
[file @ 0x5987133357c0] Setting default whitelist 'file,crypto,data'
[AVIOContext @ 0x59871333d8c0] Statistics: 11264 bytes read, 0 seeks
[image2 @ 0x598713331400] Opening '/home/supertuxi/Documents/GodotProjects/Todesstille/assets/textures/frame0009.png' for reading
[file @ 0x5987133357c0] Setting default whitelist 'file,crypto,data'
[AVIOContext @ 0x59871333d8c0] Statistics: 11264 bytes read, 0 seeks
[image2 @ 0x598713331400] Opening '/home/supertuxi/Documents/GodotProjects/Todesstille/assets/textures/frame0010.png' for reading
[file @ 0x5987133357c0] Setting default whitelist 'file,crypto,data'
[AVIOContext @ 0x59871333d8c0] Statistics: 11193 bytes read, 0 seeks
[image2 @ 0x598713331400] Opening '/home/supertuxi/Documents/GodotProjects/Todesstille/assets/textures/frame0011.png' for reading
[file @ 0x5987133357c0] Setting default whitelist 'file,crypto,data'
[AVIOContext @ 0x59871333d8c0] Statistics: 11193 bytes read, 0 seeks
[image2 @ 0x598713331400] Opening '/home/supertuxi/Documents/GodotProjects/Todesstille/assets/textures/frame0012.png' for reading
[file @ 0x5987133357c0] Setting default whitelist 'file,crypto,data'
[AVIOContext @ 0x59871333d8c0] Statistics: 11174 bytes read, 0 seeks
[image2 @ 0x598713331400] Opening '/home/supertuxi/Documents/GodotProjects/Todesstille/assets/textures/frame0013.png' for reading
[file @ 0x5987133357c0] Setting default whitelist 'file,crypto,data'
[AVIOContext @ 0x59871333d8c0] Statistics: 11174 bytes read, 0 seeks
[image2 @ 0x598713331400] Opening '/home/supertuxi/Documents/GodotProjects/Todesstille/assets/textures/frame0014.png' for reading
[file @ 0x5987133357c0] Setting default whitelist 'file,crypto,data'
[AVIOContext @ 0x59871333d8c0] Statistics: 11193 bytes read, 0 seeks
[image2 @ 0x598713331400] Opening '/home/supertuxi/Documents/GodotProjects/Todesstille/assets/textures/frame0015.png' for reading
[file @ 0x5987133357c0] Setting default whitelist 'file,crypto,data'
[AVIOContext @ 0x59871333d8c0] Statistics: 11151 bytes read, 0 seeks
[image2 @ 0x598713331400] Opening '/home/supertuxi/Documents/GodotProjects/Todesstille/assets/textures/frame0016.png' for reading
[file @ 0x5987133357c0] Setting default whitelist 'file,crypto,data'
[AVIOContext @ 0x59871333d8c0] Statistics: 11077 bytes read, 0 seeks
[image2 @ 0x598713331400] Opening '/home/supertuxi/Documents/GodotProjects/Todesstille/assets/textures/frame0017.png' for reading
[file @ 0x5987133357c0] Setting default whitelist 'file,crypto,data'
[AVIOContext @ 0x59871333d8c0] Statistics: 11058 bytes read, 0 seeks
[image2 @ 0x598713331400] Opening '/home/supertuxi/Documents/GodotProjects/Todesstille/assets/textures/frame0018.png' for reading
[file @ 0x5987133357c0] Setting default whitelist 'file,crypto,data'
[AVIOContext @ 0x59871333d8c0] Statistics: 10955 bytes read, 0 seeks
[image2 @ 0x598713331400] Opening '/home/supertuxi/Documents/GodotProjects/Todesstille/assets/textures/frame0019.png' for reading
[file @ 0x5987133357c0] Setting default whitelist 'file,crypto,data'
[AVIOContext @ 0x59871333d8c0] Statistics: 10845 bytes read, 0 seeks
[image2 @ 0x598713331400] Opening '/home/supertuxi/Documents/GodotProjects/Todesstille/assets/textures/frame0020.png' for reading
[file @ 0x5987133357c0] Setting default whitelist 'file,crypto,data'
[AVIOContext @ 0x59871333d8c0] Statistics: 10742 bytes read, 0 seeks
Input #0, image2, from '/home/supertuxi/Documents/GodotProjects/Todesstille/assets/textures/frame%04d.png':
  Duration: 00:00:00.84, start: 0.000000, bitrate: N/A
  Stream #0:0, 21, 1/25: Video: png, 1 reference frame, rgba(pc, gbr/unknown/unknown), 320x180 [SAR 11811:11811 DAR 16:9], 0/1, 25 fps, 25 tbr, 25 tbn
Successfully opened the file.
Parsing a group of options: output url /home/supertuxi/Documents/GodotProjects/Todesstille/assets/textures/KritaTempPalettegen_%06d.png.
Applying option vf (alias for -filter:v (apply filters to video streams)) with argument palettegen=stats_mode=full:reserve_transparent=1.
Successfully parsed a group of options.
Opening an output file: /home/supertuxi/Documents/GodotProjects/Todesstille/assets/textures/KritaTempPalettegen_%06d.png.
[out#0/image2 @ 0x598713333280] No explicit maps, mapping streams automatically...
[vost#0:0/png @ 0x598713365980] Created video stream from input stream 0:0
[AVFilterGraph @ 0x5987133362c0] Setting 'stats_mode' to value 'full'
[AVFilterGraph @ 0x5987133362c0] Setting 'reserve_transparent' to value '1'
detected 16 logical cores
Successfully opened the file.
Stream mapping:
  Stream #0:0 -> #0:0 (png (native) -> png (native))
[vost#0:0/png @ 0x598713365980] Starting thread...
[vf#0:0 @ 0x598713336200] Starting thread...
[vist#0:0/png @ 0x5987133330c0] [dec:png @ 0x598713333d80] Starting thread...
[in#0/image2 @ 0x598713331140] Starting thread...
Press [q] to stop, [?] for help
[in#0/image2 @ 0x598713331140] EOF while reading input
[in#0/image2 @ 0x598713331140] Terminating thread with return code 0 (success)
[AVFilterGraph @ 0x725aec001040] Setting 'stats_mode' to value 'full'
[AVFilterGraph @ 0x725aec001040] Setting 'reserve_transparent' to value '1'
[vist#0:0/png @ 0x5987133330c0] [dec:png @ 0x598713333d80] Decoder thread received EOF packet
[graph -1 input from stream 0:0 @ 0x725aec088080] Setting 'video_size' to value '320x180'
[graph -1 input from stream 0:0 @ 0x725aec088080] Setting 'pix_fmt' to value '26'
[graph -1 input from stream 0:0 @ 0x725aec088080] Setting 'time_base' to value '1/4'
[graph -1 input from stream 0:0 @ 0x725aec088080] Setting 'pixel_aspect' to value '11811/11811'
[graph -1 input from stream 0:0 @ 0x725aec088080] Setting 'colorspace' to value '0'
[graph -1 input from stream 0:0 @ 0x725aec088080] Setting 'range' to value '2'
[graph -1 input from stream 0:0 @ 0x725aec088080] Setting 'frame_rate' to value '4/1'
[graph -1 input from stream 0:0 @ 0x725aec088080] w:320 h:180 pixfmt:rgba tb:1/4 fr:4/1 sar:11811/11811 csp:gbr range:pc
[format @ 0x725aec088d00] Setting 'pix_fmts' to value 'rgb24|rgba|rgb48be|rgba64be|pal8|gray|ya8|gray16be|ya16be|monob'
[auto_scale_0 @ 0x725aec089f80] w:iw h:ih flags:'' interl:0
[Parsed_palettegen_0 @ 0x725aec004580] auto-inserting filter 'auto_scale_0' between the filter 'graph -1 input from stream 0:0' and the filter 'Parsed_palettegen_0'
[auto_scale_1 @ 0x725aec0981c0] w:iw h:ih flags:'' interl:0
[format @ 0x725aec088d00] auto-inserting filter 'auto_scale_1' between the filter 'Parsed_palettegen_0' and the filter 'format'
[AVFilterGraph @ 0x725aec001040] query_formats: 4 queried, 3 merged, 6 already done, 0 delayed
[auto_scale_1 @ 0x725aec0981c0] picking rgba out of 10 ref:bgra alpha:1
[swscaler @ 0x725aec0a5f40] [swscaler @ 0x725aec0b6080] Forcing full internal H chroma due to input having non subsampled chroma
[swscaler @ 0x725aec0a5f40] [swscaler @ 0x725aec0c9680] Forcing full internal H chroma due to input having non subsampled chroma
[swscaler @ 0x725aec0a5f40] [swscaler @ 0x725aec0dcc80] Forcing full internal H chroma due to input having non subsampled chroma
[swscaler @ 0x725aec0a5f40] [swscaler @ 0x725aec0f0280] Forcing full internal H chroma due to input having non subsampled chroma
[swscaler @ 0x725aec0a5f40] [swscaler @ 0x725aec103880] Forcing full internal H chroma due to input having non subsampled chroma
[swscaler @ 0x725aec0a5f40] [swscaler @ 0x725aec116e80] Forcing full internal H chroma due to input having non subsampled chroma
[swscaler @ 0x725aec0a5f40] [swscaler @ 0x725aec12a480] Forcing full internal H chroma due to input having non subsampled chroma
[swscaler @ 0x725aec0a5f40] [swscaler @ 0x725aec13da80] Forcing full internal H chroma due to input having non subsampled chroma
[swscaler @ 0x725aec0a5f40] [swscaler @ 0x725aec151080] Forcing full internal H chroma due to input having non subsampled chroma
[swscaler @ 0x725aec0a5f40] [swscaler @ 0x725aec164680] Forcing full internal H chroma due to input having non subsampled chroma
[swscaler @ 0x725aec0a5f40] [swscaler @ 0x725aec177c80] Forcing full internal H chroma due to input having non subsampled chroma
[swscaler @ 0x725aec0a5f40] [swscaler @ 0x725aec18b280] Forcing full internal H chroma due to input having non subsampled chroma
[swscaler @ 0x725aec0a5f40] [swscaler @ 0x725aec19e880] Forcing full internal H chroma due to input having non subsampled chroma
[swscaler @ 0x725aec0a5f40] [swscaler @ 0x725aec1b1e80] Forcing full internal H chroma due to input having non subsampled chroma
[swscaler @ 0x725aec0a5f40] [swscaler @ 0x725aec1c5480] Forcing full internal H chroma due to input having non subsampled chroma
[swscaler @ 0x725aec0a5f40] [swscaler @ 0x725aec1d8a80] Forcing full internal H chroma due to input having non subsampled chroma
[auto_scale_0 @ 0x725aec089f80] w:320 h:180 fmt:rgba csp:gbr range:pc sar:11811/11811 -> w:320 h:180 fmt:bgra csp:gbr range:pc sar:1/1 flags:0x00000004
[auto_scale_0 @ 0x725aec089f80] [framesync @ 0x725aec08a0a8] Selected 1/4 time base
[auto_scale_0 @ 0x725aec089f80] [framesync @ 0x725aec08a0a8] Sync level 1
[swscaler @ 0x725aec1ec100] [swscaler @ 0x725aec1fc640] Forcing full internal H chroma due to input having non subsampled chroma
[swscaler @ 0x725aec1ec100] [swscaler @ 0x725aec20f780] Forcing full internal H chroma due to input having non subsampled chroma
[swscaler @ 0x725aec1ec100] [swscaler @ 0x725aec2228c0] Forcing full internal H chroma due to input having non subsampled chroma
[swscaler @ 0x725aec1ec100] [swscaler @ 0x725aec235a00] Forcing full internal H chroma due to input having non subsampled chroma
[swscaler @ 0x725aec1ec100] [swscaler @ 0x725aec248b40] Forcing full internal H chroma due to input having non subsampled chroma
[swscaler @ 0x725aec1ec100] [swscaler @ 0x725aec25bc80] Forcing full internal H chroma due to input having non subsampled chroma
[swscaler @ 0x725aec1ec100] [swscaler @ 0x725aec26edc0] Forcing full internal H chroma due to input having non subsampled chroma
[swscaler @ 0x725aec1ec100] [swscaler @ 0x725aec281f00] Forcing full internal H chroma due to input having non subsampled chroma
[swscaler @ 0x725aec1ec100] [swscaler @ 0x725aec295040] Forcing full internal H chroma due to input having non subsampled chroma
[swscaler @ 0x725aec1ec100] [swscaler @ 0x725aec2a8180] Forcing full internal H chroma due to input having non subsampled chroma
[swscaler @ 0x725aec1ec100] [swscaler @ 0x725aec2bb2c0] Forcing full internal H chroma due to input having non subsampled chroma
[swscaler @ 0x725aec1ec100] [swscaler @ 0x725aec2ce400] Forcing full internal H chroma due to input having non subsampled chroma
[swscaler @ 0x725aec1ec100] [swscaler @ 0x725aec2e1540] Forcing full internal H chroma due to input having non subsampled chroma
[swscaler @ 0x725aec1ec100] [swscaler @ 0x725aec2f4680] Forcing full internal H chroma due to input having non subsampled chroma
[swscaler @ 0x725aec1ec100] [swscaler @ 0x725aec3077c0] Forcing full internal H chroma due to input having non subsampled chroma
[swscaler @ 0x725aec1ec100] [swscaler @ 0x725aec31a900] Forcing full internal H chroma due to input having non subsampled chroma
[auto_scale_1 @ 0x725aec0981c0] w:16 h:16 fmt:bgra csp:gbr range:pc sar:1/1 -> w:16 h:16 fmt:rgba csp:gbr range:pc sar:1/1 flags:0x00000004
[auto_scale_1 @ 0x725aec0981c0] [framesync @ 0x725aec0982e8] Selected 1/4 time base
[auto_scale_1 @ 0x725aec0981c0] [framesync @ 0x725aec0982e8] Sync level 1
[graph -1 input from stream 0:0 @ 0x725aec088080] video frame properties congruent with link at pts_time: 0
[vist#0:0/png @ 0x5987133330c0] [dec:png @ 0x598713333d80] Decoder returned EOF, finishing
[vist#0:0/png @ 0x5987133330c0] [dec:png @ 0x598713333d80] Terminating thread with return code 0 (success)
[auto_scale_0 @ 0x725aec089f80] [framesync @ 0x725aec08a0a8] Sync level 0
[Parsed_palettegen_0 @ 0x725aec004580] 32(+1) colors generated out of 32 colors; ratio=1.000000
Output #0, image2, to '/home/supertuxi/Documents/GodotProjects/Todesstille/assets/textures/KritaTempPalettegen_%06d.png':
  Metadata:
    encoder         : Lavf61.7.100
  Stream #0:0, 0, 1/4: Video: png, 1 reference frame, rgba(pc, gbr/unknown/unknown, progressive), 16x16 [SAR 1:1 DAR 1:1], 0/1, q=2-31, 200 kb/s, 4 fps, 4 tbn
      Metadata:
        encoder         : Lavc61.19.101 png
[out#0/image2 @ 0x598713333280] Starting thread...
[auto_scale_1 @ 0x725aec0981c0] [framesync @ 0x725aec0982e8] Sync level 0
[out_#0:0 @ 0x725aec088b80] EOF on sink link out_#0:0:default.
[vf#0:0 @ 0x598713336200] Filtergraph returned EOF, finishing
[vf#0:0 @ 0x598713336200] All consumers returned EOF
[vost#0:0/png @ 0x598713365980] Encoder thread received EOF
[vost#0:0/png @ 0x598713365980] Terminating thread with return code 0 (success)
[image2 @ 0x598713333380] Opening '/home/supertuxi/Documents/GodotProjects/Todesstille/assets/textures/KritaTempPalettegen_000001.png' for writing
[file @ 0x725ae4000d80] Setting default whitelist 'file,crypto,data'
[AVIOContext @ 0x725ae4001040] Statistics: 232 bytes written, 0 seeks, 1 writeouts
[out#0/image2 @ 0x598713333280] All streams finished
[out#0/image2 @ 0x598713333280] Terminating thread with return code 0 (success)
[vf#0:0 @ 0x598713336200] Terminating thread with return code 0 (success)
[out#0/image2 @ 0x598713333280] Output file #0 (/home/supertuxi/Documents/GodotProjects/Todesstille/assets/textures/KritaTempPalettegen_%06d.png):
[out#0/image2 @ 0x598713333280]   Output stream #0:0 (video): 1 frames encoded; 1 packets muxed (232 bytes); 
[out#0/image2 @ 0x598713333280]   Total: 1 packets (232 bytes) muxed
[out#0/image2 @ 0x598713333280] video:0KiB audio:0KiB subtitle:0KiB other streams:0KiB global headers:0KiB muxing overhead: unknown
frame=    1 fps=0.0 q=-0.0 Lsize=N/A time=00:00:00.25 bitrate=N/A speed=33.6x    
[in#0/image2 @ 0x598713331140] Input file #0 (/home/supertuxi/Documents/GodotProjects/Todesstille/assets/textures/frame%04d.png):
[in#0/image2 @ 0x598713331140]   Input stream #0:0 (video): 21 packets read (233318 bytes); 21 frames decoded; 0 decode errors; 
[in#0/image2 @ 0x598713331140]   Total: 21 packets (233318 bytes) demuxed
Input #0, image2, from '/home/supertuxi/Documents/GodotProjects/Todesstille/assets/textures/frame%04d.png':
  Duration: 00:00:00.84, start: 0.000000, bitrate: N/A
  Stream #0:0: Video: png, rgba(pc, gbr/unknown/unknown), 320x180 [SAR 11811:11811 DAR 16:9], 25 fps, 25 tbr, 25 tbn
Input #1, image2, from '/home/supertuxi/Documents/GodotProjects/Todesstille/assets/textures/KritaTempPalettegen_%06d.png':
  Duration: 00:00:00.04, start: 0.000000, bitrate: N/A
  Stream #1:0: Video: png, rgba(pc, gbr/unknown/unknown), 16x16 [SAR 1:1 DAR 1:1], 25 fps, 25 tbr, 25 tbn
Stream mapping:
  Stream #0:0 (png) -> paletteuse
  Stream #1:0 (png) -> paletteuse
  paletteuse:default -> Stream #0:0 (gif)
Press [q] to stop, [?] for help
Output #0, gif, to '/home/supertuxi/Documents/GodotProjects/Todesstille/assets/textures/title_screen_background.gif':
  Metadata:
    encoder         : Lavf61.7.100
  Stream #0:0: Video: gif, pal8(pc, gbr/unknown/unknown, progressive), 320x180 [SAR 1:1 DAR 16:9], q=2-31, 200 kb/s, 4 fps, 100 tbn
      Metadata:
        encoder         : Lavc61.19.101 gif
[out#0/gif @ 0x5eadedd42080] video:9KiB audio:0KiB subtitle:0KiB other streams:0KiB global headers:0KiB muxing overhead: 0.214362%
frame=   21 fps=0.0 q=-0.0 Lsize=       9KiB time=00:00:05.25 bitrate=  14.2kbits/s speed= 280x    
